# AST/ASF file generated using VICON BodyLanguage
# -----------------------------------------------
:version 1.10
:name VICON
:units
  mass 1.0
  length 0.45
  angle deg
:documentation
   .ast/.asf automatically generated from VICON data using
   VICON BodyBuilder and BodyLanguage model FoxedUp or BRILLIANT.MOD
:root
   order TX TY TZ RX RY RZ
   axis XYZ
   position 0 0 0  
   orientation 0 0 0 
:bonedata
  begin
     id 1 
     name lhipjoint
     direction 0.662698 -0.695252 0.27831 
     length 2.53073 
     axis 0 0 0  XYZ
  end
  begin
     id 2 
     name lfemur
     direction 0.34202 -0.939693 0  
     length 7.16147  
     axis 0 0 20  XYZ
    dof rx ry rz
    limits (-160.0 20.0)
           (-70.0 70.0)
           (-60.0 70.0)
  end
  begin
     id 3 
     name ltibia
     direction 0.34202 -0.939693 0   
     length 7.63967   
     axis 0 0 20   XYZ
    dof rx
    limits (-10.0 170.0)
  end
  begin
     id 4 
     name lfoot
     direction 0.0938457 -0.257721 0.961651   
     length 1.89793   
     axis -90 7.62852e-016 20   XYZ
    dof rx rz
    limits (-45.0 90.0)
           (-70.0 20.0)
  end
  begin
     id 5 
     name ltoes
     direction -0.00116841 -0.0030592 0.999995   
     length 0.955649   
     axis -90 7.62852e-016 20   XYZ
    dof rx
    limits (-90.0 20.0)
  end
  begin
     id 6 
     name rhipjoint
     direction -0.649445 -0.705948 0.282592   
     length 2.49238  
     axis 0 0 0  XYZ 
  end
  begin
     id 7 
     name rfemur
     direction -0.34202 -0.939693 0   
     length 6.90728   
     axis 0 0 -20   XYZ
    dof rx ry rz
    limits (-160.0 20.0)
           (-70.0 70.0)
           (-70.0 60.0)
  end
  begin
     id 8 
     name rtibia
     direction -0.34202 -0.939693 0   
     length 7.72868   
     axis 0 0 -20   XYZ
    dof rx
    limits (-10.0 170.0)
 end
 begin
     id 9 
     name rfoot
     direction -0.0920068 -0.252865 0.963117   
     length 1.97476  
     axis -90 -7.62852e-016 -20   XYZ
    dof rx rz
    limits (-45.0 90.0)
           (-20.0 70.0)
  end
  begin
     id 10 
     name rtoes
     direction 0.000391322 0.00230649 0.999997   
     length 0.992641   
     axis -90 -7.62852e-016 -20   XYZ
    dof rx
    limits (-90.0 20.0)
  end
  begin
     id 11 
     name lowerback
     direction -0.00875327 0.998321 -0.0572635   
     length 2.20024   
     axis 0 0 0   XYZ
    dof rx ry rz
    limits (-20.0 45.0)
           (-30.0 30.0)
           (-30.0 30.0)
  end
  begin
     id 12 
     name upperback
     direction 0.00753931 0.999972 -0.000360425   
     length 2.20538   
     axis 0 0 0   XYZ
    dof rx ry rz
    limits (-20.0 45.0)
           (-30.0 30.0)
           (-30.0 30.0)
  end
  begin
     id 13 
     name thorax
     direction 0.0117767 0.999601 0.0256663   
     length 2.21508   
     axis 0 0 0   XYZ
    dof rx ry rz
    limits (-20.0 45.0)
           (-30.0 30.0)
           (-30.0 30.0)
  end
  begin
     id 14 
     name lowerneck
     direction 0.060228 0.994909 0.0807986   
     length 1.7607   
     axis 0 0 0   XYZ
    dof rx ry rz
    limits (-20.0 45.0)
           (-30.0 30.0)
           (-30.0 30.0)
  end
  begin
     id 15 
     name upperneck
     direction -0.0563647 0.959594 -0.275685   
     length 1.75612   
     axis 0 0 0   XYZ
    dof rx ry rz
    limits (-20.0 45.0)
           (-30.0 30.0)
           (-30.0 30.0)
  end
  begin
     id 16
     name head
     direction -0.0161544 0.99458 -0.102714  
     length 1.79288  
     axis 0 0 0   XYZ
    dof rx ry rz
    limits (-20.0 45.0)
           (-30.0 30.0)
           (-30.0 30.0)
  end
  begin
     id 17 
     name lclavicle
     direction 0.93913 0.332189 -0.087669  
     length 3.52087  
     axis 0 0 0   XYZ
    dof ry rz
    limits (-20.0 10.0)
           (0.0 20.0)
  end
  begin
     id 18 
     name lhumerus
     direction 1 -4.48974e-011 -2.70836e-027   
     length 5.35289   
     axis -180 -30 -90   XYZ
    dof rx ry rz
    limits (-60.0 90.0)
           (-90.0 90.0)
           (-90.0 90.0)
  end
  begin
     id 19
     name lradius
     direction 1 -4.48961e-011 -9.76021e-027   
     length 3.27727   
     axis -180 -30 -90   XYZ
    dof rx
    limits (-10.0 170.0)
  end
  begin
     id 20
     name lwrist
     direction 1 -4.49103e-011 -2.23668e-026   
     length 1.63864   
     axis 1.44924e-014 90 90   XYZ
    dof ry
    limits (-180.0 0.0)
 end
  begin
     id 21 
     name lhand
     direction 1 3.0697e-005 0.000161777   
     length 0.54443   
     axis 2.85318e-014 90 90   XYZ
    dof rx rz
    limits (-90.0 90.0)
           (-45.0 45.0)
  end
  begin
     id 22 
     name lfingers
     direction 1 -4.49027e-011 -8.9447e-026   
     length 0.438912   
     axis 5.70628e-014 90 90   XYZ
    dof rx
    limits (0.0 90.0)
  end
  begin
     id 23
     name lthumb
     direction 0.707058 2.6516e-005 0.707156   
     length 0.630274   
     axis -90 45 -3.53137e-014   XYZ
    dof rx rz
    limits (-45.0 45.0)
           (-45.0 45.0)
  end
  begin
     id 24 
     name rclavicle
     direction -0.95274 0.284984 -0.105215   
     length 3.43401  
     axis 0 0 0   XYZ 
    dof ry rz
    limits (-10.0 20.0)
           (-20.0 0.0)
  end
  begin
     id 25 
     name rhumerus
     direction -0.999999 -0.000575019 -0.00106829  
     length 5.52077   
     axis -180 30 90   XYZ
    dof rx ry rz
    limits (-90.0 60.0)
           (-90.0 90.0)
           (-90.0 90.0)
  end
  begin
     id 26 
     name rradius
     direction -1 -4.4879e-011 -6.35415e-027   
     length 3.32364   
     axis -180 30 90   XYZ
    dof rx
    limits (-10.0 170.0)
  end
  begin
     id 27 
     name rwrist
     direction -1 -4.49048e-011 -9.98542e-027   
     length 1.66182   
     axis 6.32482e-015 -90 -90   XYZ
    dof ry
    limits (-180.0 0.0)
  end
  begin
     id 28
     name rhand
     direction -1 -4.48978e-011 -1.99771e-026   
     length 0.732235   
     axis 1.27479e-014 -90 -90   XYZ
    dof rx rz
    limits (-90.0 90.0)
           (-45.0 45.0)
  end
  begin
     id 29
     name rfingers
     direction -1 -4.49144e-011 -3.99245e-026   
     length 0.590347   
     axis 2.5496e-014 -90 -90   XYZ
    dof rx
    limits (0.0 90.0)
  end
  begin
     id 30
     name rthumb
     direction -0.707107 -6.35121e-011 0.707107   
     length 0.847624   
     axis -90 -45 -2.82974e-014   XYZ
    dof rx rz
    limits (-45.0 45.0)
           (-45.0 45.0)
  end
:hierarchy
  begin
    root lhipjoint rhipjoint lowerback
    lhipjoint lfemur
    lfemur ltibia
    ltibia lfoot
    lfoot ltoes
    rhipjoint rfemur
    rfemur rtibia
    rtibia rfoot
    rfoot rtoes
    lowerback upperback
    upperback thorax
    thorax lowerneck lclavicle rclavicle
    lowerneck upperneck
    upperneck head
    lclavicle lhumerus
    lhumerus lradius
    lradius lwrist
    lwrist lhand lthumb
    lhand lfingers
    rclavicle rhumerus
    rhumerus rradius
    rradius rwrist
    rwrist rhand rthumb
    rhand rfingers
  end

#!OML:ASF G:\Work\Work\Patient Classification 1\Elijah\terrain1\Elijah.ASF
:FULLY-SPECIFIED
:DEGREES
4280
root -5.01111 18.0031 2.87426 10.1763 6.7144 -6.67777
lowerback 7.1154 2.64032 5.3446
upperback 2.91139 3.8686 0.80508
thorax -0.670536 1.96532 -2.4422
lowerneck -7.51587 16.2954 15.9159
upperneck 26.4056 24.7187 -13.8328
head 14.118 11.2674 -3.69392
rclavicle 7.278e-014 -2.50469e-014
rhumerus -29.4311 15.7706 -90.0805
rradius 63.2423
rwrist -10.3014
rhand -13.3041 20.1822
rfingers 7.12502
rthumb 12.8001 -9.4054
lclavicle 7.278e-014 -2.50469e-014
lhumerus -40.4364 3.87352 81.4643
lradius 41.0952
lwrist 4.89337
lhand -17.5671 27.3481
lfingers 7.12502
lthumb 8.68809 57.1493
rfemur -0.484247 -3.41291 29.9419
rtibia 19.2143
rfoot -3.76446 0.186711
rtoes -6.91686
lfemur -61.5127 5.01802 -23.2669
ltibia 64.541
lfoot -14.906 -4.24534
ltoes -3.29191
4281
root -4.99311 18.025 3.00782 10.4293 6.59178 -6.5935
lowerback 6.96827 2.7992 4.69581
upperback 2.72147 4.03377 0.711914
thorax -0.812621 2.03718 -2.18732
lowerneck -7.25135 16.3414 16.0193
upperneck 26.031 24.7711 -13.9492
head 13.9465 11.3162 -3.75827
rclavicle 7.95139e-015 -4.47266e-015
rhumerus -30.0634 15.5181 -90.3969
rradius 62.6219
rwrist -10.5857
rhand -13.8052 20.6999
rfingers 7.12502
rthumb 12.317 -8.91733
lclavicle 7.95139e-015 -4.47266e-015
lhumerus -40.5321 3.89043 81.2064
lradius 40.6638
lwrist 4.96913
lhand -17.5478 27.7147
lfingers 7.12502
lthumb 8.70674 57.5152
rfemur -0.424487 -2.94631 29.7632
rtibia 19.1868
rfoot -2.65296 -0.073086
rtoes -6.65505
lfemur -61.2092 4.52321 -23.0852
ltibia 64.5268
lfoot -15.1036 -3.74855
ltoes -3.09643
4282
root -4.97076 18.0424 3.13125 10.5167 6.91502 -6.7849
lowerback 7.08141 2.71305 4.66717
upperback 3.00193 3.91371 0.654882
thorax -0.591691 1.98727 -2.21876
lowerneck -8.36763 16.8102 15.8696
upperneck 25.9732 25.4979 -14.3791
head 14.3491 11.4943 -3.62102
rclavicle -4.25896e-014 4.17448e-015
rhumerus -29.4124 15.5467 -90.3883
rradius 61.8556
rwrist -10.9303
rhand -13.6991 20.6194
rfingers 7.12502
rthumb 12.4192 -8.99169
lclavicle -4.25896e-014 4.17448e-015
lhumerus -39.6281 4.14807 80.9775
lradius 40.1429
lwrist 5.124
lhand -17.9272 26.8225
lfingers 7.12502
lthumb 8.34062 56.6378
rfemur -0.330496 -2.91586 29.9535
rtibia 19.4172
rfoot -1.647 -0.256856
rtoes -7.97784
lfemur -61.0693 3.69175 -22.5395
ltibia 64.7603
lfoot -14.8031 -3.53369
ltoes -1.50665
4283
root -4.94446 18.0612 3.24757 10.6462 7.62603 -6.83772
lowerback 7.25471 2.55878 4.52415
upperback 2.82787 3.71413 0.585271
thorax -0.886929 1.87766 -2.21375
lowerneck -7.96244 16.7496 15.8061
upperneck 25.563 25.2736 -14.0876
head 13.9761 11.4623 -3.59347
rclavicle -2.93207e-014 5.96354e-016
rhumerus -29.8626 15.1754 -90.6139
rradius 61.2064
rwrist -10.7244
rhand -13.4863 20.6015
rfingers 7.12502
rthumb 12.6244 -8.99703
lclavicle -2.93207e-014 5.96354e-016
lhumerus -39.3712 4.44373 80.5844
lradius 39.3907
lwrist 4.90108
lhand -18.0367 26.813
lfingers 7.12502
lthumb 8.23487 56.6325
rfemur -0.547912 -3.22016 30.0321
rtibia 20.1436
rfoot -0.808888 -0.307177
rtoes -9.16523
lfemur -61.1015 2.46343 -22.1263
ltibia 65.1693
lfoot -14.5397 -3.12954
ltoes -0.859532
4284
root -4.92717 18.0672 3.36919 10.6923 8.67465 -6.60006
lowerback 7.56101 2.3896 4.17194
upperback 2.68599 3.4836 0.461079
thorax -1.23371 1.75186 -2.15018
lowerneck -7.79693 16.6866 15.9922
upperneck 25.4302 25.0998 -13.967
head 13.8587 11.4296 -3.62799
rclavicle -1.17283e-014 -2.82274e-014
rhumerus -30.4327 14.3689 -90.7602
rradius 60.5714
rwrist -10.326
rhand -13.5196 20.8333
rfingers 7.12502
rthumb 12.5923 -8.76722
lclavicle -1.17283e-014 -2.82274e-014
lhumerus -38.9486 4.71658 80.197
lradius 38.5316
lwrist 4.52865
lhand -17.8137 27.2798
lfingers 7.12502
lthumb 8.45009 57.0908
rfemur -0.733125 -3.5599 29.9249
rtibia 20.8965
rfoot 0.00157052 -0.724447
rtoes -9.11714
lfemur -61.018 0.883223 -21.9433
ltibia 65.6544
lfoot -14.562 -2.6372
ltoes -2.39826
4285
root -4.90472 18.0689 3.49088 11.0934 9.12348 -6.80894
lowerback 7.48815 2.42107 4.10169
upperback 2.37033 3.52528 0.435219
thorax -1.51975 1.7616 -2.14724
lowerneck -7.1994 16.7358 16.3281
upperneck 25.1155 25.2576 -14.3212
head 13.7493 11.5417 -3.81364
rclavicle -3.00165e-014 7.55382e-015
rhumerus -31.1783 13.787 -90.8709
rradius 59.9004
rwrist -9.97641
rhand -13.6896 21.1673
rfingers 7.12502
rthumb 12.4284 -8.44323
lclavicle -3.00165e-014 7.55382e-015
lhumerus -38.9475 4.88986 79.9194
lradius 38.027
lwrist 4.42708
lhand -17.8172 27.2971
lfingers 7.12502
lthumb 8.44678 57.1082
rfemur -1.51291 -4.06128 30.0418
rtibia 21.7508
rfoot 0.914249 -0.53043
rtoes -8.4642
lfemur -61.3741 -0.0184962 -21.4185
ltibia 66.0952
lfoot -14.8073 -2.30237
ltoes -3.86045
4286
root -4.86396 18.0856 3.63093 11.3383 9.66846 -7.24505
lowerback 7.08802 2.36144 4.34891
upperback 2.22275 3.45052 0.526869
thorax -1.44601 1.72414 -2.16893
lowerneck -7.1029 16.7445 16.2551
upperneck 25.1039 25.1401 -13.8758
head 13.6091 11.533 -3.6767
rclavicle 1.63003e-014 -4.77083e-015
rhumerus -31.7685 13.5388 -90.8877
rradius 59.1717
rwrist -9.6851
rhand -14.0251 21.2135
rfingers 7.12502
rthumb 12.1049 -8.41633
lclavicle 1.63003e-014 -4.77083e-015
lhumerus -38.9483 5.27539 79.7521
lradius 37.6305
lwrist 4.29418
lhand -18.0125 27.6482
lfingers 7.12502
lthumb 8.2583 57.4668
rfemur -2.03077 -5.30393 30.232
rtibia 22.566
rfoot 2.5894 0.496938
rtoes -10.0007
lfemur -61.3828 -0.839998 -20.7267
ltibia 66.4389
lfoot -15.32 -2.3206
ltoes -3.52425
4287
root -4.84316 18.1176 3.73896 10.8051 10.4346 -7.06876
lowerback 7.89459 2.21682 3.90028
upperback 2.38839 3.26155 0.548004
thorax -1.76208 1.62517 -1.91756
lowerneck -6.77135 16.6989 16.5465
upperneck 24.6549 25.1167 -14.2935
head 13.4682 11.5434 -3.89969
rclavicle 5.41688e-014 2.38542e-015
rhumerus -31.9425 13.2605 -90.7888
rradius 58.2764
rwrist -9.68047
rhand -14.3245 21.1155
rfingers 7.12502
rthumb 11.8162 -8.53119
lclavicle 5.41688e-014 2.38542e-015
lhumerus -38.551 5.62449 79.6358
lradius 37.1588
lwrist 4.19001
lhand -18.1416 27.7756
lfingers 7.12502
lthumb 8.13367 57.599
rfemur -1.77099 -5.42578 30.1516
rtibia 23.2804
rfoot 4.10285 0.0574823
rtoes -11.4364
lfemur -60.3808 -1.92519 -20.5475
ltibia 66.4957
lfoot -15.659 -2.33472
ltoes -3.1939
4288
root -4.82234 18.1508 3.85634 10.6398 10.8775 -7.29707
lowerback 8.12975 2.28276 3.77028
upperback 2.43726 3.35093 0.643835
thorax -1.84989 1.66831 -1.76421
lowerneck -6.60411 16.6101 16.7364
upperneck 24.3304 25.0954 -14.8321
head 13.4204 11.5228 -4.1406
rclavicle -6.29153e-014 -1.19271e-014
rhumerus -32.1591 12.8626 -90.6064
rradius 57.2388
rwrist -9.6145
rhand -14.323 20.9968
rfingers 7.12502
rthumb 11.8176 -8.64971
lclavicle -6.29153e-014 -1.19271e-014
lhumerus -38.1373 5.67574 79.5995
lradius 36.7844
lwrist 4.34798
lhand -18.0887 28.3233
lfingers 7.12502
lthumb 8.18474 58.1448
rfemur -1.99638 -5.71636 30.3598
rtibia 23.9165
rfoot 5.93611 0.292014
rtoes -13.2664
lfemur -59.8163 -2.55855 -20.0671
ltibia 66.514
lfoot -15.9178 -2.25872
ltoes -3.52664
4289
root -4.79961 18.1878 3.98209 10.6161 11.1914 -7.74325
lowerback 8.39396 2.38786 3.8699
upperback 2.16415 3.52145 0.74073
thorax -2.2693 1.74045 -1.75705
lowerneck -6.49813 16.5247 16.6921
upperneck 24.4676 24.9907 -14.7171
head 13.4084 11.4887 -4.12904
rclavicle -2.61402e-014 -5.1684e-015
rhumerus -32.8186 12.5477 -90.6022
rradius 56.1607
rwrist -9.47205
rhand -14.6186 21.1888
rfingers 7.12502
rthumb 11.5325 -8.47397
lclavicle -2.61402e-014 -5.1684e-015
lhumerus -38.2467 5.52676 79.5218
lradius 36.7231
lwrist 4.50302
lhand -17.8278 29.7559
lfingers 7.12502
lthumb 8.43651 59.5674
rfemur -2.5056 -6.05916 30.7388
rtibia 24.8152
rfoot 7.13032 0.40583
rtoes -13.5818
lfemur -59.3452 -2.92397 -19.4414
ltibia 66.4397
lfoot -16.2395 -2.25441
ltoes -3.7539
4290
root -4.77066 18.2283 4.12302 10.7363 11.4689 -7.93086
lowerback 8.48615 2.47579 3.84919
upperback 1.78846 3.64927 0.658059
thorax -2.69839 1.78982 -1.85979
lowerneck -6.16501 16.5123 16.9689
upperneck 24.7964 24.9678 -14.455
head 13.471 11.537 -4.10359
rclavicle 5.59579e-014 2.78299e-015
rhumerus -33.631 12.2763 -90.8492
rradius 55.0228
rwrist -9.28775
rhand -15.297 21.8499
rfingers 7.12502
rthumb 10.8783 -7.84837
lclavicle 5.59579e-014 2.78299e-015
lhumerus -38.6566 5.31002 79.2791
lradius 36.8744
lwrist 4.40328
lhand -17.5264 29.9363
lfingers 7.12502
lthumb 8.72734 59.7358
rfemur -3.18735 -6.34209 30.8047
rtibia 26.0476
rfoot 9.07685 0.168012
rtoes -12.5334
lfemur -58.8058 -3.24078 -19.1674
ltibia 66.3109
lfoot -16.7261 -2.20069
ltoes -4.16161
4291
root -4.73636 18.269 4.25352 10.9865 11.5745 -7.98927
lowerback 8.35258 2.62864 3.8955
upperback 1.50818 3.84935 0.405533
thorax -2.88254 1.88045 -2.16749
lowerneck -5.93981 16.6391 17.4217
upperneck 25.162 25.1383 -14.2529
head 13.6489 11.6686 -4.0642
rclavicle -2.3059e-014 2.34566e-014
rhumerus -34.1092 11.8736 -91.1484
rradius 53.7445
rwrist -9.12214
rhand -15.49 22.1349
rfingers 7.12502
rthumb 10.6922 -7.57299
lclavicle -2.3059e-014 2.34566e-014
lhumerus -38.829 4.96397 78.9687
lradius 37.1475
lwrist 4.45058
lhand -17.1797 29.8705
lfingers 7.12502
lthumb 9.06198 59.6558
rfemur -4.20658 -6.50196 30.6953
rtibia 27.6487
rfoot 9.92886 0.594543
rtoes -13.1376
lfemur -58.339 -3.39179 -19.1037
ltibia 66.0974
lfoot -17.1049 -2.07691
ltoes -4.53532
4292
root -4.70316 18.3093 4.36978 11.1478 11.5053 -8.03311
lowerback 8.34631 2.8013 3.98538
upperback 1.33179 4.08125 0.135016
thorax -3.02097 1.98812 -2.52507
lowerneck -6.20646 16.6447 17.3949
upperneck 25.4107 25.0735 -13.9654
head 13.7401 11.639 -3.94694
rclavicle 3.04141e-014 -2.70347e-014
rhumerus -34.2424 11.3639 -91.3525
rradius 52.4205
rwrist -8.97657
rhand -15.127 22.0994
rfingers 7.12502
rthumb 11.0423 -7.59015
lclavicle 3.04141e-014 -2.70347e-014
lhumerus -38.9337 4.44581 78.7547
lradius 37.7715
lwrist 4.88643
lhand -16.5821 30.4921
lfingers 7.12502
lthumb 9.63859 60.2516
rfemur -5.41943 -6.47337 30.5567
rtibia 29.6436
rfoot 10.641 0.91165
rtoes -14.1894
lfemur -57.7981 -3.34662 -19.1135
ltibia 65.8211
lfoot -17.3427 -1.99022
ltoes -4.4943
